<mxfile host="app.diagrams.net" modified="2022-03-31T11:08:05.205Z" agent="5.0 (X11)" etag="6ddx55yooSkOk3--rl3y" version="17.3.0" type="github" pages="2">
  <diagram id="swjVrMKwIJOuW-R1iBgw" name="shuffle">
    <mxGraphModel dx="2062" dy="1091" grid="1" gridSize="10" guides="1" tooltips="1" connect="1" arrows="1" fold="1" page="1" pageScale="1" pageWidth="850" pageHeight="1100" math="0" shadow="0">
      <root>
        <mxCell id="0" />
        <mxCell id="1" parent="0" />
        <mxCell id="fFoQV893W-BJZJalTyda-7" value="" style="group" parent="1" vertex="1" connectable="0">
          <mxGeometry x="52" y="130" width="140" height="50" as="geometry" />
        </mxCell>
        <mxCell id="fFoQV893W-BJZJalTyda-1" value="" style="shape=parallelogram;perimeter=parallelogramPerimeter;whiteSpace=wrap;html=1;fixedSize=1;rounded=1;sketch=1;fillStyle=solid;strokeWidth=1;fillColor=default;size=50;flipH=1;" parent="fFoQV893W-BJZJalTyda-7" vertex="1">
          <mxGeometry y="16.66666666666663" width="137.51479289940826" height="33.33333333333333" as="geometry" />
        </mxCell>
        <mxCell id="fFoQV893W-BJZJalTyda-2" value="" style="shape=parallelogram;perimeter=parallelogramPerimeter;whiteSpace=wrap;html=1;fixedSize=1;rounded=1;sketch=1;fillStyle=solid;strokeWidth=1;fillColor=default;size=50;flipH=1;" parent="fFoQV893W-BJZJalTyda-7" vertex="1">
          <mxGeometry y="12.5" width="137.51479289940826" height="33.33333333333333" as="geometry" />
        </mxCell>
        <mxCell id="fFoQV893W-BJZJalTyda-3" value="" style="shape=parallelogram;perimeter=parallelogramPerimeter;whiteSpace=wrap;html=1;fixedSize=1;rounded=1;sketch=1;fillStyle=solid;strokeWidth=1;fillColor=default;size=50;flipH=1;" parent="fFoQV893W-BJZJalTyda-7" vertex="1">
          <mxGeometry y="8.333333333333371" width="137.51479289940826" height="33.33333333333333" as="geometry" />
        </mxCell>
        <mxCell id="fFoQV893W-BJZJalTyda-4" value="" style="shape=parallelogram;perimeter=parallelogramPerimeter;whiteSpace=wrap;html=1;fixedSize=1;rounded=1;sketch=1;fillStyle=solid;strokeWidth=1;fillColor=default;size=50;flipH=1;" parent="fFoQV893W-BJZJalTyda-7" vertex="1">
          <mxGeometry x="0.8284023668639154" y="5" width="137.51479289940826" height="33.33333333333333" as="geometry" />
        </mxCell>
        <mxCell id="fFoQV893W-BJZJalTyda-5" value="" style="shape=parallelogram;perimeter=parallelogramPerimeter;whiteSpace=wrap;html=1;fixedSize=1;rounded=1;sketch=1;fillStyle=solid;strokeWidth=1;fillColor=default;size=50;flipH=1;" parent="fFoQV893W-BJZJalTyda-7" vertex="1">
          <mxGeometry x="2.485207100591696" y="2.5" width="137.51479289940826" height="33.33333333333333" as="geometry" />
        </mxCell>
        <mxCell id="fFoQV893W-BJZJalTyda-6" value="&lt;font data-font-src=&quot;https://fonts.googleapis.com/css?family=Gloria+Hallelujah&quot; style=&quot;font-size: 15px&quot; face=&quot;Gloria Hallelujah&quot;&gt;RANDAO&lt;/font&gt;" style="shape=parallelogram;perimeter=parallelogramPerimeter;whiteSpace=wrap;html=1;fixedSize=1;rounded=1;sketch=1;fillStyle=solid;strokeWidth=1;fillColor=default;size=50;flipH=1;" parent="fFoQV893W-BJZJalTyda-7" vertex="1">
          <mxGeometry x="2.485207100591696" width="137.51479289940826" height="33.33333333333333" as="geometry" />
        </mxCell>
        <mxCell id="fFoQV893W-BJZJalTyda-8" value="Shuffle" style="shape=umlActor;verticalLabelPosition=bottom;verticalAlign=top;html=1;outlineConnect=0;rounded=1;sketch=1;fillStyle=solid;strokeWidth=1;fillColor=#FFFFFF;fontSize=18;fontFamily=Gloria Hallelujah;fontSource=https%3A%2F%2Ffonts.googleapis.com%2Fcss%3Ffamily%3DGloria%2BHallelujah;" parent="1" vertex="1">
          <mxGeometry x="237" y="101" width="50" height="90" as="geometry" />
        </mxCell>
        <mxCell id="fFoQV893W-BJZJalTyda-14" value="" style="group" parent="1" vertex="1" connectable="0">
          <mxGeometry x="322" y="130" width="140" height="50" as="geometry" />
        </mxCell>
        <mxCell id="fFoQV893W-BJZJalTyda-15" value="" style="shape=parallelogram;perimeter=parallelogramPerimeter;whiteSpace=wrap;html=1;fixedSize=1;rounded=1;sketch=1;fillStyle=solid;strokeWidth=1;fillColor=default;size=50;flipH=1;" parent="fFoQV893W-BJZJalTyda-14" vertex="1">
          <mxGeometry y="16.66666666666663" width="137.51479289940826" height="33.33333333333333" as="geometry" />
        </mxCell>
        <mxCell id="fFoQV893W-BJZJalTyda-16" value="" style="shape=parallelogram;perimeter=parallelogramPerimeter;whiteSpace=wrap;html=1;fixedSize=1;rounded=1;sketch=1;fillStyle=solid;strokeWidth=1;fillColor=default;size=50;flipH=1;" parent="fFoQV893W-BJZJalTyda-14" vertex="1">
          <mxGeometry y="12.5" width="137.51479289940826" height="33.33333333333333" as="geometry" />
        </mxCell>
        <mxCell id="fFoQV893W-BJZJalTyda-17" value="" style="shape=parallelogram;perimeter=parallelogramPerimeter;whiteSpace=wrap;html=1;fixedSize=1;rounded=1;sketch=1;fillStyle=solid;strokeWidth=1;fillColor=default;size=50;flipH=1;" parent="fFoQV893W-BJZJalTyda-14" vertex="1">
          <mxGeometry y="8.333333333333371" width="137.51479289940826" height="33.33333333333333" as="geometry" />
        </mxCell>
        <mxCell id="fFoQV893W-BJZJalTyda-18" value="" style="shape=parallelogram;perimeter=parallelogramPerimeter;whiteSpace=wrap;html=1;fixedSize=1;rounded=1;sketch=1;fillStyle=solid;strokeWidth=1;fillColor=default;size=50;flipH=1;" parent="fFoQV893W-BJZJalTyda-14" vertex="1">
          <mxGeometry x="0.8284023668639154" y="5" width="137.51479289940826" height="33.33333333333333" as="geometry" />
        </mxCell>
        <mxCell id="fFoQV893W-BJZJalTyda-19" value="" style="shape=parallelogram;perimeter=parallelogramPerimeter;whiteSpace=wrap;html=1;fixedSize=1;rounded=1;sketch=1;fillStyle=solid;strokeWidth=1;fillColor=default;size=50;flipH=1;" parent="fFoQV893W-BJZJalTyda-14" vertex="1">
          <mxGeometry x="2.485207100591696" y="2.5" width="137.51479289940826" height="33.33333333333333" as="geometry" />
        </mxCell>
        <mxCell id="fFoQV893W-BJZJalTyda-20" value="&lt;font data-font-src=&quot;https://fonts.googleapis.com/css?family=Gloria+Hallelujah&quot; style=&quot;font-size: 15px&quot; face=&quot;Gloria Hallelujah&quot;&gt;RANDAO&lt;/font&gt;" style="shape=parallelogram;perimeter=parallelogramPerimeter;whiteSpace=wrap;html=1;fixedSize=1;rounded=1;sketch=1;fillStyle=solid;strokeWidth=1;fillColor=default;size=50;flipH=1;" parent="fFoQV893W-BJZJalTyda-14" vertex="1">
          <mxGeometry x="2.485207100591696" width="137.51479289940826" height="33.33333333333333" as="geometry" />
        </mxCell>
        <mxCell id="fFoQV893W-BJZJalTyda-21" value="Shuffle" style="shape=umlActor;verticalLabelPosition=bottom;verticalAlign=top;html=1;outlineConnect=0;rounded=1;sketch=1;fillStyle=solid;strokeWidth=1;fillColor=#FFFFFF;fontSize=18;fontFamily=Gloria Hallelujah;fontSource=https%3A%2F%2Ffonts.googleapis.com%2Fcss%3Ffamily%3DGloria%2BHallelujah;" parent="1" vertex="1">
          <mxGeometry x="760" y="101" width="50" height="90" as="geometry" />
        </mxCell>
        <mxCell id="fFoQV893W-BJZJalTyda-22" value="" style="group" parent="1" vertex="1" connectable="0">
          <mxGeometry x="592" y="130" width="140" height="50" as="geometry" />
        </mxCell>
        <mxCell id="fFoQV893W-BJZJalTyda-23" value="" style="shape=parallelogram;perimeter=parallelogramPerimeter;whiteSpace=wrap;html=1;fixedSize=1;rounded=1;sketch=1;fillStyle=solid;strokeWidth=1;fillColor=default;size=50;flipH=1;" parent="fFoQV893W-BJZJalTyda-22" vertex="1">
          <mxGeometry y="16.66666666666663" width="137.51479289940826" height="33.33333333333333" as="geometry" />
        </mxCell>
        <mxCell id="fFoQV893W-BJZJalTyda-24" value="" style="shape=parallelogram;perimeter=parallelogramPerimeter;whiteSpace=wrap;html=1;fixedSize=1;rounded=1;sketch=1;fillStyle=solid;strokeWidth=1;fillColor=default;size=50;flipH=1;" parent="fFoQV893W-BJZJalTyda-22" vertex="1">
          <mxGeometry y="12.5" width="137.51479289940826" height="33.33333333333333" as="geometry" />
        </mxCell>
        <mxCell id="fFoQV893W-BJZJalTyda-25" value="" style="shape=parallelogram;perimeter=parallelogramPerimeter;whiteSpace=wrap;html=1;fixedSize=1;rounded=1;sketch=1;fillStyle=solid;strokeWidth=1;fillColor=default;size=50;flipH=1;" parent="fFoQV893W-BJZJalTyda-22" vertex="1">
          <mxGeometry y="8.333333333333371" width="137.51479289940826" height="33.33333333333333" as="geometry" />
        </mxCell>
        <mxCell id="fFoQV893W-BJZJalTyda-26" value="" style="shape=parallelogram;perimeter=parallelogramPerimeter;whiteSpace=wrap;html=1;fixedSize=1;rounded=1;sketch=1;fillStyle=solid;strokeWidth=1;fillColor=default;size=50;flipH=1;" parent="fFoQV893W-BJZJalTyda-22" vertex="1">
          <mxGeometry x="0.8284023668639154" y="5" width="137.51479289940826" height="33.33333333333333" as="geometry" />
        </mxCell>
        <mxCell id="fFoQV893W-BJZJalTyda-27" value="" style="shape=parallelogram;perimeter=parallelogramPerimeter;whiteSpace=wrap;html=1;fixedSize=1;rounded=1;sketch=1;fillStyle=solid;strokeWidth=1;fillColor=default;size=50;flipH=1;" parent="fFoQV893W-BJZJalTyda-22" vertex="1">
          <mxGeometry x="2.485207100591696" y="2.5" width="137.51479289940826" height="33.33333333333333" as="geometry" />
        </mxCell>
        <mxCell id="fFoQV893W-BJZJalTyda-28" value="&lt;font data-font-src=&quot;https://fonts.googleapis.com/css?family=Gloria+Hallelujah&quot; style=&quot;font-size: 15px&quot; face=&quot;Gloria Hallelujah&quot;&gt;RANDAO&lt;/font&gt;" style="shape=parallelogram;perimeter=parallelogramPerimeter;whiteSpace=wrap;html=1;fixedSize=1;rounded=1;sketch=1;fillStyle=solid;strokeWidth=1;fillColor=#FFFFFF;size=50;flipH=1;" parent="fFoQV893W-BJZJalTyda-22" vertex="1">
          <mxGeometry x="2.485207100591696" width="137.51479289940826" height="33.33333333333333" as="geometry" />
        </mxCell>
        <mxCell id="fFoQV893W-BJZJalTyda-29" value="Shuffle" style="shape=umlActor;verticalLabelPosition=bottom;verticalAlign=top;html=1;outlineConnect=0;rounded=1;sketch=1;fillStyle=solid;strokeWidth=1;fillColor=#FFFFFF;fontSize=18;fontFamily=Gloria Hallelujah;fontSource=https%3A%2F%2Ffonts.googleapis.com%2Fcss%3Ffamily%3DGloria%2BHallelujah;" parent="1" vertex="1">
          <mxGeometry x="499" y="101" width="50" height="90" as="geometry" />
        </mxCell>
        <mxCell id="fFoQV893W-BJZJalTyda-31" value="" style="group" parent="1" vertex="1" connectable="0">
          <mxGeometry x="862" y="130" width="140" height="50" as="geometry" />
        </mxCell>
        <mxCell id="fFoQV893W-BJZJalTyda-32" value="" style="shape=parallelogram;perimeter=parallelogramPerimeter;whiteSpace=wrap;html=1;fixedSize=1;rounded=1;sketch=1;fillStyle=solid;strokeWidth=1;fillColor=default;size=50;flipH=1;" parent="fFoQV893W-BJZJalTyda-31" vertex="1">
          <mxGeometry y="16.66666666666663" width="137.51479289940826" height="33.33333333333333" as="geometry" />
        </mxCell>
        <mxCell id="fFoQV893W-BJZJalTyda-33" value="" style="shape=parallelogram;perimeter=parallelogramPerimeter;whiteSpace=wrap;html=1;fixedSize=1;rounded=1;sketch=1;fillStyle=solid;strokeWidth=1;fillColor=default;size=50;flipH=1;" parent="fFoQV893W-BJZJalTyda-31" vertex="1">
          <mxGeometry y="12.5" width="137.51479289940826" height="33.33333333333333" as="geometry" />
        </mxCell>
        <mxCell id="fFoQV893W-BJZJalTyda-34" value="" style="shape=parallelogram;perimeter=parallelogramPerimeter;whiteSpace=wrap;html=1;fixedSize=1;rounded=1;sketch=1;fillStyle=solid;strokeWidth=1;fillColor=default;size=50;flipH=1;" parent="fFoQV893W-BJZJalTyda-31" vertex="1">
          <mxGeometry y="8.333333333333371" width="137.51479289940826" height="33.33333333333333" as="geometry" />
        </mxCell>
        <mxCell id="fFoQV893W-BJZJalTyda-35" value="" style="shape=parallelogram;perimeter=parallelogramPerimeter;whiteSpace=wrap;html=1;fixedSize=1;rounded=1;sketch=1;fillStyle=solid;strokeWidth=1;fillColor=default;size=50;flipH=1;" parent="fFoQV893W-BJZJalTyda-31" vertex="1">
          <mxGeometry x="0.8284023668639154" y="5" width="137.51479289940826" height="33.33333333333333" as="geometry" />
        </mxCell>
        <mxCell id="fFoQV893W-BJZJalTyda-36" value="" style="shape=parallelogram;perimeter=parallelogramPerimeter;whiteSpace=wrap;html=1;fixedSize=1;rounded=1;sketch=1;fillStyle=solid;strokeWidth=1;fillColor=default;size=50;flipH=1;" parent="fFoQV893W-BJZJalTyda-31" vertex="1">
          <mxGeometry x="2.485207100591696" y="2.5" width="137.51479289940826" height="33.33333333333333" as="geometry" />
        </mxCell>
        <mxCell id="fFoQV893W-BJZJalTyda-37" value="&lt;font style=&quot;font-size: 15px&quot; data-font-src=&quot;https://fonts.googleapis.com/css?family=Gloria+Hallelujah&quot; face=&quot;Gloria Hallelujah&quot;&gt;RANDAO&lt;/font&gt;" style="shape=parallelogram;perimeter=parallelogramPerimeter;whiteSpace=wrap;html=1;fixedSize=1;rounded=1;sketch=1;fillStyle=solid;strokeWidth=1;fillColor=#FFFFFF;size=50;flipH=1;" parent="fFoQV893W-BJZJalTyda-31" vertex="1">
          <mxGeometry x="2.485207100591696" width="137.51479289940826" height="33.33333333333333" as="geometry" />
        </mxCell>
        <mxCell id="fFoQV893W-BJZJalTyda-38" value="" style="endArrow=classic;html=1;rounded=1;sketch=1;fontSize=18;" parent="1" target="fFoQV893W-BJZJalTyda-8" edge="1">
          <mxGeometry width="50" height="50" relative="1" as="geometry">
            <mxPoint x="190" y="146" as="sourcePoint" />
            <mxPoint x="450" y="530" as="targetPoint" />
          </mxGeometry>
        </mxCell>
        <mxCell id="fFoQV893W-BJZJalTyda-39" value="" style="endArrow=classic;html=1;rounded=1;sketch=1;fontSize=18;" parent="1" source="fFoQV893W-BJZJalTyda-8" edge="1">
          <mxGeometry width="50" height="50" relative="1" as="geometry">
            <mxPoint x="289" y="147" as="sourcePoint" />
            <mxPoint x="320" y="147" as="targetPoint" />
          </mxGeometry>
        </mxCell>
        <mxCell id="fFoQV893W-BJZJalTyda-40" value="" style="endArrow=classic;html=1;rounded=1;sketch=1;fontSize=18;" parent="1" edge="1">
          <mxGeometry width="50" height="50" relative="1" as="geometry">
            <mxPoint x="470" y="145" as="sourcePoint" />
            <mxPoint x="507" y="145" as="targetPoint" />
          </mxGeometry>
        </mxCell>
        <mxCell id="fFoQV893W-BJZJalTyda-41" value="" style="endArrow=classic;html=1;rounded=1;sketch=1;fontSize=18;" parent="1" edge="1">
          <mxGeometry width="50" height="50" relative="1" as="geometry">
            <mxPoint x="550" y="146" as="sourcePoint" />
            <mxPoint x="590" y="146" as="targetPoint" />
          </mxGeometry>
        </mxCell>
        <mxCell id="fFoQV893W-BJZJalTyda-42" value="" style="endArrow=classic;html=1;rounded=1;sketch=1;fontSize=18;" parent="1" edge="1">
          <mxGeometry width="50" height="50" relative="1" as="geometry">
            <mxPoint x="740" y="145" as="sourcePoint" />
            <mxPoint x="777" y="145" as="targetPoint" />
          </mxGeometry>
        </mxCell>
        <mxCell id="fFoQV893W-BJZJalTyda-43" value="" style="endArrow=classic;html=1;rounded=1;sketch=1;fontSize=18;" parent="1" source="fFoQV893W-BJZJalTyda-21" edge="1">
          <mxGeometry width="50" height="50" relative="1" as="geometry">
            <mxPoint x="829" y="146" as="sourcePoint" />
            <mxPoint x="850" y="146" as="targetPoint" />
          </mxGeometry>
        </mxCell>
      </root>
    </mxGraphModel>
  </diagram>
  <diagram id="J6zAhJV8Qx0ruf7eNUDa" name="Scratch">
    <mxGraphModel dx="2062" dy="1091" grid="1" gridSize="10" guides="1" tooltips="1" connect="1" arrows="1" fold="1" page="1" pageScale="1" pageWidth="850" pageHeight="1100" background="none" math="0" shadow="0">
      <root>
        <mxCell id="0" />
        <mxCell id="1" parent="0" />
        <mxCell id="0gHl5KY-6kwlvLQUNp86-80" value="" style="group" vertex="1" connectable="0" parent="1">
          <mxGeometry x="359.0477328881299" y="359.1357564445343" width="101.90453422374026" height="111.72848711093138" as="geometry" />
        </mxCell>
        <mxCell id="0gHl5KY-6kwlvLQUNp86-35" value="" style="group;aspect=fixed;direction=east;rotation=1;flipH=0;flipV=0;" vertex="1" connectable="0" parent="0gHl5KY-6kwlvLQUNp86-80">
          <mxGeometry x="0.9522671118701282" y="0.8642435554656913" width="100" height="110" as="geometry" />
        </mxCell>
        <mxCell id="0gHl5KY-6kwlvLQUNp86-36" value="" style="shape=parallelogram;perimeter=parallelogramPerimeter;whiteSpace=wrap;html=1;fixedSize=1;sketch=1;direction=south;flipH=0;rounded=1;" vertex="1" parent="0gHl5KY-6kwlvLQUNp86-35">
          <mxGeometry x="50" width="50" height="90" as="geometry" />
        </mxCell>
        <mxCell id="0gHl5KY-6kwlvLQUNp86-37" value="" style="shape=parallelogram;perimeter=parallelogramPerimeter;whiteSpace=wrap;html=1;fixedSize=1;sketch=1;direction=south;flipH=1;rounded=1;" vertex="1" parent="0gHl5KY-6kwlvLQUNp86-35">
          <mxGeometry width="50" height="90" as="geometry" />
        </mxCell>
        <mxCell id="0gHl5KY-6kwlvLQUNp86-38" value="" style="rhombus;whiteSpace=wrap;html=1;rounded=1;sketch=1;" vertex="1" parent="0gHl5KY-6kwlvLQUNp86-35">
          <mxGeometry y="70" width="100" height="40" as="geometry" />
        </mxCell>
        <mxCell id="0gHl5KY-6kwlvLQUNp86-39" value="" style="ellipse;whiteSpace=wrap;html=1;rounded=1;sketch=1;" vertex="1" parent="0gHl5KY-6kwlvLQUNp86-35">
          <mxGeometry x="30" y="30" width="40" height="30" as="geometry" />
        </mxCell>
        <mxCell id="0gHl5KY-6kwlvLQUNp86-40" value="" style="shape=parallelogram;perimeter=parallelogramPerimeter;whiteSpace=wrap;html=1;fixedSize=1;sketch=1;direction=south;flipH=0;rounded=1;" vertex="1" parent="0gHl5KY-6kwlvLQUNp86-35">
          <mxGeometry y="20" width="50" height="90" as="geometry" />
        </mxCell>
        <mxCell id="0gHl5KY-6kwlvLQUNp86-41" value="" style="shape=parallelogram;perimeter=parallelogramPerimeter;whiteSpace=wrap;html=1;fixedSize=1;sketch=1;direction=south;flipH=1;rounded=1;" vertex="1" parent="0gHl5KY-6kwlvLQUNp86-35">
          <mxGeometry x="50" y="20" width="50" height="90" as="geometry" />
        </mxCell>
        <mxCell id="0gHl5KY-6kwlvLQUNp86-42" value="" style="rhombus;whiteSpace=wrap;html=1;rounded=1;sketch=1;" vertex="1" parent="0gHl5KY-6kwlvLQUNp86-35">
          <mxGeometry width="100" height="40" as="geometry" />
        </mxCell>
        <mxCell id="0gHl5KY-6kwlvLQUNp86-63" value="" style="ellipse;whiteSpace=wrap;html=1;rounded=1;sketch=1;fillColor=#000000;fillStyle=solid;direction=south;" vertex="1" parent="0gHl5KY-6kwlvLQUNp86-35">
          <mxGeometry x="11" y="38.5" width="6" height="12" as="geometry" />
        </mxCell>
        <mxCell id="0gHl5KY-6kwlvLQUNp86-64" value="" style="ellipse;whiteSpace=wrap;html=1;rounded=1;sketch=1;fillColor=#000000;fillStyle=solid;direction=south;" vertex="1" parent="0gHl5KY-6kwlvLQUNp86-35">
          <mxGeometry x="32" y="78.5" width="6" height="12" as="geometry" />
        </mxCell>
        <mxCell id="0gHl5KY-6kwlvLQUNp86-67" value="" style="ellipse;whiteSpace=wrap;html=1;rounded=1;sketch=1;fillColor=#000000;fillStyle=solid;direction=south;" vertex="1" parent="0gHl5KY-6kwlvLQUNp86-35">
          <mxGeometry x="32" y="49.5" width="6" height="12" as="geometry" />
        </mxCell>
        <mxCell id="0gHl5KY-6kwlvLQUNp86-68" value="" style="ellipse;whiteSpace=wrap;html=1;rounded=1;sketch=1;fillColor=#000000;fillStyle=solid;direction=south;" vertex="1" parent="0gHl5KY-6kwlvLQUNp86-35">
          <mxGeometry x="11" y="67.5" width="6" height="12" as="geometry" />
        </mxCell>
        <mxCell id="0gHl5KY-6kwlvLQUNp86-69" value="" style="ellipse;whiteSpace=wrap;html=1;rounded=1;sketch=1;fillColor=#000000;fillStyle=solid;direction=south;" vertex="1" parent="0gHl5KY-6kwlvLQUNp86-35">
          <mxGeometry x="86" y="35" width="6" height="12" as="geometry" />
        </mxCell>
        <mxCell id="0gHl5KY-6kwlvLQUNp86-70" value="" style="ellipse;whiteSpace=wrap;html=1;rounded=1;sketch=1;fillColor=#000000;fillStyle=solid;direction=south;" vertex="1" parent="0gHl5KY-6kwlvLQUNp86-35">
          <mxGeometry x="86" y="72.5" width="6" height="12" as="geometry" />
        </mxCell>
        <mxCell id="0gHl5KY-6kwlvLQUNp86-71" value="" style="ellipse;whiteSpace=wrap;html=1;rounded=1;sketch=1;fillColor=#000000;fillStyle=solid;direction=south;" vertex="1" parent="0gHl5KY-6kwlvLQUNp86-35">
          <mxGeometry x="60" y="83.5" width="6" height="12" as="geometry" />
        </mxCell>
        <mxCell id="0gHl5KY-6kwlvLQUNp86-72" value="" style="ellipse;whiteSpace=wrap;html=1;rounded=1;sketch=1;fillColor=#000000;fillStyle=solid;direction=south;" vertex="1" parent="0gHl5KY-6kwlvLQUNp86-35">
          <mxGeometry x="60" y="46" width="6" height="12" as="geometry" />
        </mxCell>
        <mxCell id="0gHl5KY-6kwlvLQUNp86-73" value="" style="ellipse;whiteSpace=wrap;html=1;rounded=1;sketch=1;fillColor=#000000;fillStyle=solid;direction=south;" vertex="1" parent="0gHl5KY-6kwlvLQUNp86-35">
          <mxGeometry x="73" y="59.5" width="6" height="12" as="geometry" />
        </mxCell>
        <mxCell id="0gHl5KY-6kwlvLQUNp86-74" value="" style="ellipse;whiteSpace=wrap;html=1;rounded=1;sketch=1;fillColor=#000000;fillStyle=solid;" vertex="1" parent="0gHl5KY-6kwlvLQUNp86-35">
          <mxGeometry x="41" y="8" width="12" height="4" as="geometry" />
        </mxCell>
        <mxCell id="0gHl5KY-6kwlvLQUNp86-77" value="" style="ellipse;whiteSpace=wrap;html=1;rounded=1;sketch=1;fillColor=#000000;fillStyle=solid;" vertex="1" parent="0gHl5KY-6kwlvLQUNp86-35">
          <mxGeometry x="19" y="16" width="12" height="4" as="geometry" />
        </mxCell>
        <mxCell id="0gHl5KY-6kwlvLQUNp86-78" value="" style="ellipse;whiteSpace=wrap;html=1;rounded=1;sketch=1;fillColor=#000000;fillStyle=solid;" vertex="1" parent="0gHl5KY-6kwlvLQUNp86-35">
          <mxGeometry x="34" y="21" width="12" height="4" as="geometry" />
        </mxCell>
        <mxCell id="0gHl5KY-6kwlvLQUNp86-79" value="" style="ellipse;whiteSpace=wrap;html=1;rounded=1;sketch=1;fillColor=#000000;fillStyle=solid;" vertex="1" parent="0gHl5KY-6kwlvLQUNp86-35">
          <mxGeometry x="48" y="27" width="12" height="4" as="geometry" />
        </mxCell>
        <mxCell id="0gHl5KY-6kwlvLQUNp86-75" value="" style="ellipse;whiteSpace=wrap;html=1;rounded=1;sketch=1;fillColor=#000000;fillStyle=solid;" vertex="1" parent="0gHl5KY-6kwlvLQUNp86-80">
          <mxGeometry x="56.95226711187013" y="13.864243555465691" width="12" height="4" as="geometry" />
        </mxCell>
        <mxCell id="0gHl5KY-6kwlvLQUNp86-76" value="" style="ellipse;whiteSpace=wrap;html=1;rounded=1;sketch=1;fillColor=#000000;fillStyle=solid;" vertex="1" parent="0gHl5KY-6kwlvLQUNp86-80">
          <mxGeometry x="70.95226711187013" y="19.86424355546569" width="12" height="4" as="geometry" />
        </mxCell>
        <mxCell id="0gHl5KY-6kwlvLQUNp86-14" value="" style="group;aspect=fixed;direction=east;rotation=1;flipH=0;flipV=0;" vertex="1" connectable="0" parent="1">
          <mxGeometry x="430" y="390" width="100" height="110" as="geometry" />
        </mxCell>
        <mxCell id="0gHl5KY-6kwlvLQUNp86-17" value="" style="shape=parallelogram;perimeter=parallelogramPerimeter;whiteSpace=wrap;html=1;fixedSize=1;sketch=1;direction=south;flipH=0;rounded=1;" vertex="1" parent="0gHl5KY-6kwlvLQUNp86-14">
          <mxGeometry x="50" width="50" height="90" as="geometry" />
        </mxCell>
        <mxCell id="0gHl5KY-6kwlvLQUNp86-16" value="" style="shape=parallelogram;perimeter=parallelogramPerimeter;whiteSpace=wrap;html=1;fixedSize=1;sketch=1;direction=south;flipH=1;rounded=1;" vertex="1" parent="0gHl5KY-6kwlvLQUNp86-14">
          <mxGeometry width="50" height="90" as="geometry" />
        </mxCell>
        <mxCell id="0gHl5KY-6kwlvLQUNp86-15" value="" style="rhombus;whiteSpace=wrap;html=1;rounded=1;sketch=1;" vertex="1" parent="0gHl5KY-6kwlvLQUNp86-14">
          <mxGeometry y="70" width="100" height="40" as="geometry" />
        </mxCell>
        <mxCell id="0gHl5KY-6kwlvLQUNp86-18" value="" style="ellipse;whiteSpace=wrap;html=1;rounded=1;sketch=1;" vertex="1" parent="0gHl5KY-6kwlvLQUNp86-14">
          <mxGeometry x="30" y="30" width="40" height="30" as="geometry" />
        </mxCell>
        <mxCell id="0gHl5KY-6kwlvLQUNp86-8" value="" style="shape=parallelogram;perimeter=parallelogramPerimeter;whiteSpace=wrap;html=1;fixedSize=1;sketch=1;direction=south;flipH=0;rounded=1;" vertex="1" parent="0gHl5KY-6kwlvLQUNp86-14">
          <mxGeometry y="20" width="50" height="90" as="geometry" />
        </mxCell>
        <mxCell id="0gHl5KY-6kwlvLQUNp86-9" value="" style="shape=parallelogram;perimeter=parallelogramPerimeter;whiteSpace=wrap;html=1;fixedSize=1;sketch=1;direction=south;flipH=1;rounded=1;" vertex="1" parent="0gHl5KY-6kwlvLQUNp86-14">
          <mxGeometry x="50" y="20" width="50" height="90" as="geometry" />
        </mxCell>
        <mxCell id="0gHl5KY-6kwlvLQUNp86-13" value="" style="rhombus;whiteSpace=wrap;html=1;rounded=1;sketch=1;" vertex="1" parent="0gHl5KY-6kwlvLQUNp86-14">
          <mxGeometry width="100" height="40" as="geometry" />
        </mxCell>
        <mxCell id="0gHl5KY-6kwlvLQUNp86-43" value="" style="ellipse;whiteSpace=wrap;html=1;rounded=1;sketch=1;fillColor=#000000;fillStyle=solid;" vertex="1" parent="0gHl5KY-6kwlvLQUNp86-14">
          <mxGeometry x="43" y="18" width="12" height="4" as="geometry" />
        </mxCell>
        <mxCell id="0gHl5KY-6kwlvLQUNp86-44" value="" style="ellipse;whiteSpace=wrap;html=1;rounded=1;sketch=1;fillColor=#000000;fillStyle=solid;direction=south;" vertex="1" parent="0gHl5KY-6kwlvLQUNp86-14">
          <mxGeometry x="10" y="44" width="6" height="12" as="geometry" />
        </mxCell>
        <mxCell id="0gHl5KY-6kwlvLQUNp86-45" value="" style="ellipse;whiteSpace=wrap;html=1;rounded=1;sketch=1;fillColor=#000000;fillStyle=solid;direction=south;" vertex="1" parent="0gHl5KY-6kwlvLQUNp86-14">
          <mxGeometry x="30" y="74" width="6" height="12" as="geometry" />
        </mxCell>
        <mxCell id="0gHl5KY-6kwlvLQUNp86-46" value="" style="ellipse;whiteSpace=wrap;html=1;rounded=1;sketch=1;fillColor=#000000;fillStyle=solid;direction=south;" vertex="1" parent="0gHl5KY-6kwlvLQUNp86-14">
          <mxGeometry x="83" y="37" width="6" height="12" as="geometry" />
        </mxCell>
        <mxCell id="0gHl5KY-6kwlvLQUNp86-47" value="" style="ellipse;whiteSpace=wrap;html=1;rounded=1;sketch=1;fillColor=#000000;fillStyle=solid;direction=south;" vertex="1" parent="0gHl5KY-6kwlvLQUNp86-14">
          <mxGeometry x="61" y="82" width="6" height="12" as="geometry" />
        </mxCell>
        <mxCell id="0gHl5KY-6kwlvLQUNp86-48" value="" style="ellipse;whiteSpace=wrap;html=1;rounded=1;sketch=1;fillColor=#000000;fillStyle=solid;direction=south;" vertex="1" parent="0gHl5KY-6kwlvLQUNp86-14">
          <mxGeometry x="71" y="60" width="6" height="12" as="geometry" />
        </mxCell>
        <mxCell id="0gHl5KY-6kwlvLQUNp86-82" value="" style="shape=parallelogram;perimeter=parallelogramPerimeter;whiteSpace=wrap;html=1;fixedSize=1;rounded=1;sketch=1;fillStyle=solid;strokeWidth=1;fillColor=default;size=14;flipH=1;" vertex="1" parent="1">
          <mxGeometry x="326" y="640" width="120" height="60" as="geometry" />
        </mxCell>
        <mxCell id="0gHl5KY-6kwlvLQUNp86-83" value="" style="shape=parallelogram;perimeter=parallelogramPerimeter;whiteSpace=wrap;html=1;fixedSize=1;rounded=1;sketch=1;fillStyle=solid;strokeWidth=1;fillColor=default;size=14;flipH=1;" vertex="1" parent="1">
          <mxGeometry x="329" y="634" width="120" height="60" as="geometry" />
        </mxCell>
        <mxCell id="0gHl5KY-6kwlvLQUNp86-84" value="" style="shape=parallelogram;perimeter=parallelogramPerimeter;whiteSpace=wrap;html=1;fixedSize=1;rounded=1;sketch=1;fillStyle=solid;strokeWidth=1;fillColor=default;size=14;flipH=1;" vertex="1" parent="1">
          <mxGeometry x="334" y="629" width="120" height="60" as="geometry" />
        </mxCell>
        <mxCell id="0gHl5KY-6kwlvLQUNp86-85" value="" style="shape=parallelogram;perimeter=parallelogramPerimeter;whiteSpace=wrap;html=1;fixedSize=1;rounded=1;sketch=1;fillStyle=solid;strokeWidth=1;fillColor=default;size=50;flipH=1;" vertex="1" parent="1">
          <mxGeometry x="332" y="776.6666666666666" width="155.19526627218934" height="33.33333333333333" as="geometry" />
        </mxCell>
        <mxCell id="0gHl5KY-6kwlvLQUNp86-86" value="" style="shape=parallelogram;perimeter=parallelogramPerimeter;whiteSpace=wrap;html=1;fixedSize=1;rounded=1;sketch=1;fillStyle=solid;strokeWidth=1;fillColor=default;size=50;flipH=1;" vertex="1" parent="1">
          <mxGeometry x="332" y="772.5" width="155.19526627218934" height="33.33333333333333" as="geometry" />
        </mxCell>
        <mxCell id="0gHl5KY-6kwlvLQUNp86-87" value="" style="shape=parallelogram;perimeter=parallelogramPerimeter;whiteSpace=wrap;html=1;fixedSize=1;rounded=1;sketch=1;fillStyle=solid;strokeWidth=1;fillColor=default;size=50;flipH=1;" vertex="1" parent="1">
          <mxGeometry x="332" y="768.3333333333334" width="155.19526627218934" height="33.33333333333333" as="geometry" />
        </mxCell>
        <mxCell id="0gHl5KY-6kwlvLQUNp86-88" value="" style="shape=parallelogram;perimeter=parallelogramPerimeter;whiteSpace=wrap;html=1;fixedSize=1;rounded=1;sketch=1;fillStyle=solid;strokeWidth=1;fillColor=default;size=50;flipH=1;" vertex="1" parent="1">
          <mxGeometry x="332.93491124260356" y="765" width="155.19526627218934" height="33.33333333333333" as="geometry" />
        </mxCell>
        <mxCell id="0gHl5KY-6kwlvLQUNp86-89" value="" style="shape=parallelogram;perimeter=parallelogramPerimeter;whiteSpace=wrap;html=1;fixedSize=1;rounded=1;sketch=1;fillStyle=solid;strokeWidth=1;fillColor=default;size=50;flipH=1;" vertex="1" parent="1">
          <mxGeometry x="334.8047337278106" y="762.5" width="155.19526627218934" height="33.33333333333333" as="geometry" />
        </mxCell>
        <mxCell id="0gHl5KY-6kwlvLQUNp86-90" value="" style="shape=parallelogram;perimeter=parallelogramPerimeter;whiteSpace=wrap;html=1;fixedSize=1;rounded=1;sketch=1;fillStyle=zigzag-line;strokeWidth=1;fillColor=#000000;size=50;flipH=1;" vertex="1" parent="1">
          <mxGeometry x="334.8047337278106" y="760" width="155.19526627218934" height="33.33333333333333" as="geometry" />
        </mxCell>
      </root>
    </mxGraphModel>
  </diagram>
</mxfile>
